<?xml version="1.0" encoding="UTF-8"?>
<svg xmlns="http://www.w3.org/2000/svg" style="stroke-dasharray:none; shape-rendering:auto; font-family:'Arial'; text-rendering:auto; fill-opacity:1; color-interpolation:auto; color-rendering:auto; font-size:12; fill:black; stroke:black; image-rendering:auto; stroke-miterlimit:10; stroke-linecap:square; stroke-linejoin:miter; font-style:normal; stroke-width:1; stroke-dashoffset:0; font-weight:normal; stroke-opacity:1;" contentScriptType="text/ecmascript" preserveAspectRatio="xMidYMid meet" zoomAndPan="magnify" version="1.0" contentStyleType="text/css" xml:xlink="http://www.w3.org/1999/xlink" width="1408" height="721"><rect x="0" y="0" width="1408" height="721" ry="0" rx="0" style="stroke:#000000; fill:#FFFFFF" /><rect x="30" y="288" width="1378" height="144" ry="0" rx="0" style="stroke:#000000; fill:#C9C3AC" /><g componentSequence="6"><text x="-360" y="37" transform="rotate(270)" text-anchor="middle" style="font-weight:bold;font-size:10px;stroke:none; fill:#434343"><tspan dy="14" x="-360">Compras</tspan></text></g><rect x="30" y="432" width="1378" height="144" ry="0" rx="0" style="stroke:#000000; fill:#D6E0D0" /><g componentSequence="5"><text x="-504" y="37" transform="rotate(270)" text-anchor="middle" style="font-weight:bold;font-size:10px;stroke:none; fill:#434343"><tspan dy="14" x="-504">Financeiro</tspan></text></g><rect x="30" y="144" width="1378" height="144" ry="0" rx="0" style="stroke:#000000; fill:#00FFFF" /><g componentSequence="4"><text x="-216" y="37" transform="rotate(270)" text-anchor="middle" style="font-weight:bold;font-size:10px;stroke:none; fill:#434343"><tspan dy="14" x="-216">Engenharia</tspan></text></g><rect x="30" y="576" width="1378" height="145" ry="0" rx="0" style="stroke:#000000; fill:#ADC9AC" /><g componentSequence="3"><text x="-648" y="37" transform="rotate(270)" text-anchor="middle" style="font-weight:bold;font-size:10px;stroke:none; fill:#434343"><tspan dy="14" x="-648">Estoque</tspan></text></g><rect x="30" y="0" width="1378" height="144" ry="0" rx="0" style="stroke:#000000; fill:#82B0B7" /><g componentSequence="2"><text x="-72" y="37" transform="rotate(270)" text-anchor="middle" style="font-weight:bold;font-size:10px;stroke:none; fill:#434343"><tspan dy="14" x="-72">G3 -Ordem de Compra</tspan></text></g><g componentSequence="1"><text x="-360" y="7" transform="rotate(270)" text-anchor="middle" style="font-weight:bold;font-size:10px;stroke:none; fill:#434343"><tspan dy="14" x="-360">G4 - Anexação de Comprovante</tspan></text></g><g sequence="6"><ellipse cx="87" cy="72" rx="17" ry="17" stroke-width="1" style="fill:url(#linearGradient66FF6696FF96B6FFB6_156102662);" stroke="336633" /></g><g sequence="9"><ellipse cx="570" cy="72" rx="17" ry="17" stroke-width="1" style="fill:url(#linearGradientFFFF66FFFF96FFFFB6_126492511);" stroke="999900" /></g><g sequence="9"><polygon points=" 556 65 571 65 571 58 586 73 571 88 571 81 556 81" style="stroke:none; fill:#999900" /></g><g sequence="11"><ellipse cx="250" cy="483" rx="17" ry="17" stroke-width="1" style="fill:url(#linearGradientFFFF66FFFF96FFFFB6_62233462);" stroke="999900" /></g><g sequence="11"><polygon points=" 236 476 251 476 251 469 266 484 251 499 251 492 236 492" style="stroke:#999900; fill:none" /></g><g sequence="12"><rect x="340" y="448" width="106" height="70" ry="5" rx="5" style="fill:url(#linearGradientF8FBFEEDF5FCDEEDFAD4E7F8E2E5E9_1186403684);" stroke="191970" /></g><g componentSequence="12"><text x="393" y="463" text-anchor="middle" style="font-weight:bold;font-size:10px;stroke:none; fill:#333399"><tspan dy="14" x="393">Anexar</tspan><tspan dy="14" x="393">Comprovante</tspan></text></g><g sequence="14"><rect x="340" y="327" width="106" height="56" ry="5" rx="5" style="fill:url(#linearGradientF8FBFEEDF5FCDEEDFAD4E7F8E2E5E9_547098740);" stroke="191970" /></g><g componentSequence="14"><text x="393" y="344" text-anchor="middle" style="font-weight:bold;font-size:10px;stroke:none; fill:#333399"><tspan dy="14" x="393">Anexar Boleto</tspan></text></g><g sequence="16"><rect x="660" y="320" width="106" height="70" ry="5" rx="5" style="fill:url(#linearGradientF8FBFEEDF5FCDEEDFAD4E7F8E2E5E9_2008781791);" stroke="191970" /></g><g componentSequence="16"><text x="713" y="335" text-anchor="middle" style="font-weight:bold;font-size:10px;stroke:none; fill:#333399"><tspan dy="14" x="713">Validação</tspan><tspan dy="14" x="713">Compras</tspan></text></g><g sequence="19"><ellipse cx="887" cy="317" rx="17" ry="17" stroke-width="1" style="fill:url(#linearGradientFFFF66FFFF96FFFFB6_1484441717);" stroke="999900" /></g><g sequence="19"><polygon points=" 873 310 888 310 888 303 903 318 888 333 888 326 873 326" style="stroke:none; fill:#999900" /></g><g sequence="21"><ellipse cx="253" cy="648" rx="17" ry="17" stroke-width="1" style="fill:url(#linearGradientFFFF66FFFF96FFFFB6_647555627);" stroke="999900" /></g><g sequence="21"><polygon points=" 239 641 254 641 254 634 269 649 254 664 254 657 239 657" style="stroke:#999900; fill:none" /></g><g sequence="22"><rect x="343" y="621" width="106" height="56" ry="5" rx="5" style="fill:url(#linearGradientF8FBFEEDF5FCDEEDFAD4E7F8E2E5E9_1724338492);" stroke="191970" /></g><g componentSequence="22"><text x="396" y="638" text-anchor="middle" style="font-weight:bold;font-size:10px;stroke:none; fill:#333399"><tspan dy="14" x="396">Anexar NF</tspan></text></g><g sequence="24"><ellipse cx="887" cy="649" rx="17" ry="17" stroke-width="3" style="fill:url(#linearGradientFF6666FF9696FFB6B6_1305019216);" stroke="993333" /></g><g sequence="31"><ellipse cx="887" cy="72" rx="17" ry="17" stroke-width="3" style="fill:url(#linearGradientFF6666FF9696FFB6B6_1132348412);" stroke="993333" /></g><g sequence="31"><polygon points=" 878 68 883 63 888 68 893 63 898 68 893 73 898 78 893 83 888 78 883 83 878 78 883 73" style="stroke:none; fill:#993333" /></g><g sequence="32"><ellipse cx="712" cy="72" rx="17" ry="17" stroke-width="1" style="fill:url(#linearGradientFFFF66FFFF96FFFFB6_584462346);" stroke="999900" /></g><g sequence="32"><polygon points=" 698 65 713 65 713 58 728 73 713 88 713 81 698 81" style="stroke:#999900; fill:none" /></g><g sequence="34"><ellipse cx="573" cy="354" rx="17" ry="17" stroke-width="1" style="fill:url(#linearGradientFFFF66FFFF96FFFFB6_2118437853);" stroke="999900" /></g><g sequence="34"><polygon points=" 559 347 574 347 574 340 589 355 574 370 574 363 559 363" style="stroke:none; fill:#999900" /></g><g sequence="35"><ellipse cx="392" cy="564" rx="17" ry="17" stroke-width="1" style="fill:url(#linearGradientFFFF66FFFF96FFFFB6_2064811206);" stroke="999900" /></g><g sequence="35"><polygon points=" 378 557 393 557 393 550 408 565 393 580 393 573 378 573" style="stroke:none; fill:#999900" /></g><g sequence="47"><polygon points=" 363 51 393 21 423 51 393 81 363 51" style="fill:url(#linearGradientFAFBFCFFFFCC_1254246907);" stroke="000000" /></g><g componentSequence="47"><text x="393" y="91" text-anchor="middle" style="font-weight:bold;font-size:10px;stroke:none; fill:#333399"><tspan dy="14" x="393">Anexa</tspan><tspan dy="14" x="393">Boleto?</tspan></text></g><g sequence="110"><ellipse cx="887" cy="387" rx="17" ry="17" stroke-width="1" style="fill:url(#linearGradientFFFF66FFFF96FFFFB6_1493657289);" stroke="999900" /></g><g sequence="110"><polygon points=" 873 380 888 380 888 373 903 388 888 403 888 396 873 396" style="stroke:none; fill:#999900" /></g><g sequence="112"><rect x="1000" y="320" width="106" height="70" ry="5" rx="5" style="fill:url(#linearGradientF8FBFEEDF5FCDEEDFAD4E7F8E2E5E9_29709335);" stroke="191970" /></g><g componentSequence="112"><text x="1053" y="335" text-anchor="middle" style="font-weight:bold;font-size:10px;stroke:none; fill:#333399"><tspan dy="14" x="1053">Pagamentos</tspan><tspan dy="14" x="1053">Parciais</tspan></text></g><g sequence="114"><ellipse cx="1277" cy="354" rx="17" ry="17" stroke-width="1" style="fill:url(#linearGradientFFFF66FFFF96FFFFB6_1847510109);" stroke="999900" /></g><g sequence="114"><polygon points=" 1263 347 1278 347 1278 340 1293 355 1278 370 1278 363 1263 363" style="stroke:none; fill:#999900" /></g><g sequence="119"><rect x="570" y="580" width="106" height="56" ry="5" rx="5" style="fill:url(#linearGradientF8FBFEEDF5FCDEEDFAD4E7F8E2E5E9_910939636);" stroke="191970" /></g><g componentSequence="119"><text x="623" y="597" text-anchor="middle" style="font-weight:bold;font-size:10px;stroke:none; fill:#333399"><tspan dy="14" x="623">Estornos</tspan></text></g><g sequence="120"><rect x="570" y="660" width="106" height="56" ry="5" rx="5" style="fill:url(#linearGradientF8FBFEEDF5FCDEEDFAD4E7F8E2E5E9_1410915546);" stroke="191970" /></g><g componentSequence="120"><text x="623" y="677" text-anchor="middle" style="font-weight:bold;font-size:10px;stroke:none; fill:#333399"><tspan dy="14" x="623">Créditos</tspan></text></g><g sequence="136"><rect x="1000" y="185" width="106" height="70" ry="5" rx="5" style="fill:url(#linearGradientF8FBFEEDF5FCDEEDFAD4E7F8E2E5E9_2144751522);" stroke="191970" /></g><g componentSequence="136"><text x="1053" y="200" text-anchor="middle" style="font-weight:bold;font-size:10px;stroke:none; fill:#333399"><tspan dy="14" x="1053">Aprovação</tspan><tspan dy="14" x="1053">Engenharia</tspan></text></g><g componentSequence="13"><text x="314" y="483" style="font-size:10px;font-weight:none;stroke:none; fill:#333399" text-anchor="left" /></g><g componentSequence="18"><text x="403" y="415" style="font-size:10px;font-weight:none;stroke:none; fill:#333399" text-anchor="left" /></g><g componentSequence="20"><text x="828" y="332" style="font-size:10px;font-weight:none;stroke:none; fill:#333399" text-anchor="left" /></g><g componentSequence="23"><text x="317" y="648" style="font-size:10px;font-weight:none;stroke:none; fill:#333399" text-anchor="left" /></g><g componentSequence="26"><text x="563" y="419" style="font-size:10px;font-weight:none;stroke:none; fill:#333399" text-anchor="left" /></g><g componentSequence="33"><text x="810" y="72" style="font-size:10px;font-weight:none;stroke:none; fill:#333399" text-anchor="left" /></g><g componentSequence="36"><text x="460" y="357" style="font-size:10px;font-weight:none;stroke:none; fill:#333399" text-anchor="left"><tspan dy="14" x="460">Cancelamento</tspan></text></g><g componentSequence="37"><text x="402" y="532" style="font-size:10px;font-weight:none;stroke:none; fill:#333399" text-anchor="left"><tspan dy="14" x="402">Cancelamento</tspan></text></g><g componentSequence="49"><text x="403" y="225" style="font-size:10px;font-weight:none;stroke:none; fill:#333399" text-anchor="left" /></g><g componentSequence="50"><text x="498" y="72" style="font-size:10px;font-weight:none;stroke:none; fill:#333399" text-anchor="left" /></g><g componentSequence="109"><text x="560" y="505" style="font-size:10px;font-weight:none;stroke:none; fill:#333399" text-anchor="left" /></g><g componentSequence="111"><text x="828" y="374" style="font-size:10px;font-weight:none;stroke:none; fill:#333399" text-anchor="left" /></g><g componentSequence="113"><text x="893" y="355" style="font-size:10px;font-weight:none;stroke:none; fill:#333399" text-anchor="left" /></g><g componentSequence="123"><text x="783" y="631" style="font-size:10px;font-weight:none;stroke:none; fill:#333399" text-anchor="left" /></g><g componentSequence="124"><text x="783" y="666" style="font-size:10px;font-weight:none;stroke:none; fill:#333399" text-anchor="left" /></g><g componentSequence="126"><text x="669" y="649" style="font-size:10px;font-weight:none;stroke:none; fill:#333399" text-anchor="left" /></g><g componentSequence="127"><text x="519" y="628" style="font-size:10px;font-weight:none;stroke:none; fill:#333399" text-anchor="left" /></g><g componentSequence="128"><text x="519" y="668" style="font-size:10px;font-weight:none;stroke:none; fill:#333399" text-anchor="left" /></g><g componentSequence="134"><text x="244" y="72" style="font-size:10px;font-weight:none;stroke:none; fill:#333399" text-anchor="left" /></g><g componentSequence="137"><text x="1063" y="287" style="font-size:10px;font-weight:none;stroke:none; fill:#333399" text-anchor="left" /></g><g componentSequence="138"><text x="1193" y="298" style="font-size:10px;font-weight:none;stroke:none; fill:#333399" text-anchor="left" /></g><g componentSequence="139"><text x="244" y="72" style="font-size:10px;font-weight:none;stroke:none; fill:#333399" text-anchor="left" /></g><path style="fill:none; stroke:#000000;stroke-width:1" d="M105.0 72.0 L362.0 72.0" /><polygon style="fill:#000000; stroke:#000000;" points=" 352 67 362 72 352 77 354 72" /><path style="fill:none; stroke:#000000;stroke-width:1" d="M423.0 72.0 L552.0 72.0" /><polygon style="fill:#000000; stroke:#000000;" points=" 542 67 552 72 542 77 544 72" /><path style="fill:none; stroke:#000000;stroke-width:1" d="M268.0 483.0 L339.0 483.0" /><polygon style="fill:#000000; stroke:#000000;" points=" 329 478 339 483 329 488 331 483" /><path style="fill:none; stroke:#F00000;stroke-width:1" d="M446.0 461.0 L659.0 376.0" /><polygon style="fill:#F00000; stroke:#F00000;" points=" 648 375 659 376 652 384 652 379" /><polygon style="fill:#F00000; stroke:#F00000;" points=" 457 462 446 461 453 453 453 458" /><path style="fill:none; stroke:#000000;stroke-width:1" d="M392.0 518.0 L392.0 547.0" /><polygon style="fill:#000000; stroke:#000000;" points=" 397 537 392 547 387 537 392 539" /><path style="fill:none; stroke:#000000;stroke-width:1" d="M393.0 383.0 L393.0 447.0" /><polygon style="fill:#000000; stroke:#000000;" points=" 398 437 393 447 388 437 393 439" /><path style="fill:none; stroke:#000000;stroke-width:1" d="M446.0 354.0 L556.0 354.0" /><polygon style="fill:#000000; stroke:#000000;" points=" 546 349 556 354 546 359 548 354" /><path style="fill:none; stroke:#000000;stroke-width:1" d="M393.0 123.0 L393.0 326.0" /><polygon style="fill:#000000; stroke:#000000;" points=" 398 316 393 326 388 316 393 318" /><path style="fill:none; stroke:#000000;stroke-width:1" d="M766.0 343.0 L870.0 320.0" /><polygon style="fill:#000000; stroke:#000000;" points=" 859 317 870 320 861 327 862 322" /><path style="fill:none; stroke:#000000;stroke-width:1" d="M766.0 364.0 L870.0 384.0" /><polygon style="fill:#000000; stroke:#000000;" points=" 861 377 870 384 859 387 862 382" /><path style="fill:none; stroke:#000000;stroke-width:1" d="M766.0 355.0 L999.0 355.0" /><polygon style="fill:#000000; stroke:#000000;" points=" 989 350 999 355 989 360 991 355" /><path style="fill:none; stroke:#000000;stroke-width:1" d="M426.0 620.0 L674.0 390.0" /><polygon style="fill:#000000; stroke:#000000;" points=" 663 393 674 390 670 400 668 395" /><path style="fill:none; stroke:#000000;stroke-width:1" d="M270.0 648.0 L342.0 648.0" /><polygon style="fill:#000000; stroke:#000000;" points=" 332 643 342 648 332 653 334 648" /><path style="fill:none; stroke:#000000;stroke-width:1" d="M449.0 649.0 L869.0 649.0" /><polygon style="fill:#000000; stroke:#000000;" points=" 859 644 869 649 859 654 861 649" /><path style="fill:none; stroke:#000000;stroke-width:1" d="M449.0 639.0 L569.0 617.0" /><polygon style="fill:#000000; stroke:#000000;" points=" 558 614 569 617 560 624 561 618" /><path style="fill:none; stroke:#000000;stroke-width:1" d="M449.0 658.0 L569.0 678.0" /><polygon style="fill:#000000; stroke:#000000;" points=" 560 671 569 678 558 681 561 677" /><path style="fill:none; stroke:#000000;stroke-width:1" d="M676.0 616.0 L870.0 647.0" /><polygon style="fill:#000000; stroke:#000000;" points=" 861 640 870 647 859 650 862 646" /><path style="fill:none; stroke:#000000;stroke-width:1" d="M676.0 680.0 L870.0 651.0" /><polygon style="fill:#000000; stroke:#000000;" points=" 859 648 870 651 861 657 862 652" /><path style="fill:none; stroke:#000000;stroke-width:1" d="M730.0 72.0 L869.0 72.0" /><polygon style="fill:#000000; stroke:#000000;" points=" 859 67 869 72 859 77 861 72" /><path style="fill:none; stroke:#000000;stroke-width:1" d="M1053.0 319.0 L1053.0 255.0" /><polygon style="fill:#000000; stroke:#000000;" points=" 1048 265 1053 255 1058 265 1053 263" /><path style="fill:none; stroke:#000000;stroke-width:1" d="M1106.0 252.0 L1262.0 345.0" /><polygon style="fill:#000000; stroke:#000000;" points=" 1256 336 1262 345 1251 344 1255 341" /><path style="fill:none; stroke:#009600;stroke-width:1" d="M105.0 72.0 L362.0 72.0" /><polygon style="fill:#009600; stroke:#009600;" points=" 352 67 362 72 352 77 354 72" /><defs><linearGradient xmlns:xlink="http://www.w3.org/1999/xlink" xlink:href="#linearGradient66FF6696FF96B6FFB6" id="linearGradient66FF6696FF96B6FFB6_156102662" x1="0" y1="55.0" x2="0" y2="90.0" gradientUnits="userSpaceOnUse" xlink:type="simple" xlink:actuate="onLoad" xlink:show="other" /><linearGradient id="linearGradient66FF6696FF96B6FFB6"><stop style="stop-color:#66FF66;stop-opacity:1;" offset="0.0" id="stop66FF66" /><stop style="stop-color:#96FF96;stop-opacity:1;" offset="0.5" id="stop96FF96" /><stop style="stop-color:#B6FFB6;stop-opacity:1;" offset="1.0" id="stopB6FFB6" /></linearGradient><linearGradient xmlns:xlink="http://www.w3.org/1999/xlink" xlink:href="#linearGradientFFFF66FFFF96FFFFB6" id="linearGradientFFFF66FFFF96FFFFB6_126492511" x1="0" y1="55.0" x2="0" y2="90.0" gradientUnits="userSpaceOnUse" xlink:type="simple" xlink:actuate="onLoad" xlink:show="other" /><linearGradient id="linearGradientFFFF66FFFF96FFFFB6"><stop style="stop-color:#FFFF66;stop-opacity:1;" offset="0.0" id="stopFFFF66" /><stop style="stop-color:#FFFF96;stop-opacity:1;" offset="0.5" id="stopFFFF96" /><stop style="stop-color:#FFFFB6;stop-opacity:1;" offset="1.0" id="stopFFFFB6" /></linearGradient><linearGradient xmlns:xlink="http://www.w3.org/1999/xlink" xlink:href="#linearGradientFFFF66FFFF96FFFFB6" id="linearGradientFFFF66FFFF96FFFFB6_62233462" x1="0" y1="466.0" x2="0" y2="501.0" gradientUnits="userSpaceOnUse" xlink:type="simple" xlink:actuate="onLoad" xlink:show="other" /><linearGradient xmlns:xlink="http://www.w3.org/1999/xlink" xlink:href="#linearGradientF8FBFEEDF5FCDEEDFAD4E7F8E2E5E9" id="linearGradientF8FBFEEDF5FCDEEDFAD4E7F8E2E5E9_1186403684" x1="0" y1="448.0" x2="0" y2="554.0" gradientUnits="userSpaceOnUse" xlink:type="simple" xlink:actuate="onLoad" xlink:show="other" /><linearGradient id="linearGradientF8FBFEEDF5FCDEEDFAD4E7F8E2E5E9"><stop style="stop-color:#F8FBFE;stop-opacity:1;" offset="0.0" id="stopF8FBFE" /><stop style="stop-color:#EDF5FC;stop-opacity:1;" offset="0.25" id="stopEDF5FC" /><stop style="stop-color:#DEEDFA;stop-opacity:1;" offset="0.5" id="stopDEEDFA" /><stop style="stop-color:#D4E7F8;stop-opacity:1;" offset="0.75" id="stopD4E7F8" /><stop style="stop-color:#E2E5E9;stop-opacity:1;" offset="1.0" id="stopE2E5E9" /></linearGradient><linearGradient xmlns:xlink="http://www.w3.org/1999/xlink" xlink:href="#linearGradientF8FBFEEDF5FCDEEDFAD4E7F8E2E5E9" id="linearGradientF8FBFEEDF5FCDEEDFAD4E7F8E2E5E9_547098740" x1="0" y1="327.0" x2="0" y2="433.0" gradientUnits="userSpaceOnUse" xlink:type="simple" xlink:actuate="onLoad" xlink:show="other" /><linearGradient xmlns:xlink="http://www.w3.org/1999/xlink" xlink:href="#linearGradientF8FBFEEDF5FCDEEDFAD4E7F8E2E5E9" id="linearGradientF8FBFEEDF5FCDEEDFAD4E7F8E2E5E9_2008781791" x1="0" y1="320.0" x2="0" y2="426.0" gradientUnits="userSpaceOnUse" xlink:type="simple" xlink:actuate="onLoad" xlink:show="other" /><linearGradient xmlns:xlink="http://www.w3.org/1999/xlink" xlink:href="#linearGradientFFFF66FFFF96FFFFB6" id="linearGradientFFFF66FFFF96FFFFB6_1484441717" x1="0" y1="300.0" x2="0" y2="335.0" gradientUnits="userSpaceOnUse" xlink:type="simple" xlink:actuate="onLoad" xlink:show="other" /><linearGradient xmlns:xlink="http://www.w3.org/1999/xlink" xlink:href="#linearGradientFFFF66FFFF96FFFFB6" id="linearGradientFFFF66FFFF96FFFFB6_647555627" x1="0" y1="631.0" x2="0" y2="666.0" gradientUnits="userSpaceOnUse" xlink:type="simple" xlink:actuate="onLoad" xlink:show="other" /><linearGradient xmlns:xlink="http://www.w3.org/1999/xlink" xlink:href="#linearGradientF8FBFEEDF5FCDEEDFAD4E7F8E2E5E9" id="linearGradientF8FBFEEDF5FCDEEDFAD4E7F8E2E5E9_1724338492" x1="0" y1="621.0" x2="0" y2="727.0" gradientUnits="userSpaceOnUse" xlink:type="simple" xlink:actuate="onLoad" xlink:show="other" /><linearGradient xmlns:xlink="http://www.w3.org/1999/xlink" xlink:href="#linearGradientFF6666FF9696FFB6B6" id="linearGradientFF6666FF9696FFB6B6_1305019216" x1="0" y1="632.0" x2="0" y2="667.0" gradientUnits="userSpaceOnUse" xlink:type="simple" xlink:actuate="onLoad" xlink:show="other" /><linearGradient id="linearGradientFF6666FF9696FFB6B6"><stop style="stop-color:#FF6666;stop-opacity:1;" offset="0.0" id="stopFF6666" /><stop style="stop-color:#FF9696;stop-opacity:1;" offset="0.5" id="stopFF9696" /><stop style="stop-color:#FFB6B6;stop-opacity:1;" offset="1.0" id="stopFFB6B6" /></linearGradient><linearGradient xmlns:xlink="http://www.w3.org/1999/xlink" xlink:href="#linearGradientFF6666FF9696FFB6B6" id="linearGradientFF6666FF9696FFB6B6_1132348412" x1="0" y1="55.0" x2="0" y2="90.0" gradientUnits="userSpaceOnUse" xlink:type="simple" xlink:actuate="onLoad" xlink:show="other" /><linearGradient xmlns:xlink="http://www.w3.org/1999/xlink" xlink:href="#linearGradientFFFF66FFFF96FFFFB6" id="linearGradientFFFF66FFFF96FFFFB6_584462346" x1="0" y1="55.0" x2="0" y2="90.0" gradientUnits="userSpaceOnUse" xlink:type="simple" xlink:actuate="onLoad" xlink:show="other" /><linearGradient xmlns:xlink="http://www.w3.org/1999/xlink" xlink:href="#linearGradientFFFF66FFFF96FFFFB6" id="linearGradientFFFF66FFFF96FFFFB6_2118437853" x1="0" y1="337.0" x2="0" y2="372.0" gradientUnits="userSpaceOnUse" xlink:type="simple" xlink:actuate="onLoad" xlink:show="other" /><linearGradient xmlns:xlink="http://www.w3.org/1999/xlink" xlink:href="#linearGradientFFFF66FFFF96FFFFB6" id="linearGradientFFFF66FFFF96FFFFB6_2064811206" x1="0" y1="547.0" x2="0" y2="582.0" gradientUnits="userSpaceOnUse" xlink:type="simple" xlink:actuate="onLoad" xlink:show="other" /><linearGradient xmlns:xlink="http://www.w3.org/1999/xlink" xlink:href="#linearGradientFAFBFCFFFFCC" id="linearGradientFAFBFCFFFFCC_1254246907" x1="0" y1="21.0" x2="0" y2="81.0" gradientUnits="userSpaceOnUse" xlink:type="simple" xlink:actuate="onLoad" xlink:show="other" /><linearGradient id="linearGradientFAFBFCFFFFCC"><stop style="stop-color:#FAFBFC;stop-opacity:1;" offset="0.0" id="stopFAFBFC" /><stop style="stop-color:#FFFFCC;stop-opacity:1;" offset="1.0" id="stopFFFFCC" /></linearGradient><linearGradient xmlns:xlink="http://www.w3.org/1999/xlink" xlink:href="#linearGradientFFFF66FFFF96FFFFB6" id="linearGradientFFFF66FFFF96FFFFB6_1493657289" x1="0" y1="370.0" x2="0" y2="405.0" gradientUnits="userSpaceOnUse" xlink:type="simple" xlink:actuate="onLoad" xlink:show="other" /><linearGradient xmlns:xlink="http://www.w3.org/1999/xlink" xlink:href="#linearGradientF8FBFEEDF5FCDEEDFAD4E7F8E2E5E9" id="linearGradientF8FBFEEDF5FCDEEDFAD4E7F8E2E5E9_29709335" x1="0" y1="320.0" x2="0" y2="426.0" gradientUnits="userSpaceOnUse" xlink:type="simple" xlink:actuate="onLoad" xlink:show="other" /><linearGradient xmlns:xlink="http://www.w3.org/1999/xlink" xlink:href="#linearGradientFFFF66FFFF96FFFFB6" id="linearGradientFFFF66FFFF96FFFFB6_1847510109" x1="0" y1="337.0" x2="0" y2="372.0" gradientUnits="userSpaceOnUse" xlink:type="simple" xlink:actuate="onLoad" xlink:show="other" /><linearGradient xmlns:xlink="http://www.w3.org/1999/xlink" xlink:href="#linearGradientF8FBFEEDF5FCDEEDFAD4E7F8E2E5E9" id="linearGradientF8FBFEEDF5FCDEEDFAD4E7F8E2E5E9_910939636" x1="0" y1="580.0" x2="0" y2="686.0" gradientUnits="userSpaceOnUse" xlink:type="simple" xlink:actuate="onLoad" xlink:show="other" /><linearGradient xmlns:xlink="http://www.w3.org/1999/xlink" xlink:href="#linearGradientF8FBFEEDF5FCDEEDFAD4E7F8E2E5E9" id="linearGradientF8FBFEEDF5FCDEEDFAD4E7F8E2E5E9_1410915546" x1="0" y1="660.0" x2="0" y2="766.0" gradientUnits="userSpaceOnUse" xlink:type="simple" xlink:actuate="onLoad" xlink:show="other" /><linearGradient xmlns:xlink="http://www.w3.org/1999/xlink" xlink:href="#linearGradientF8FBFEEDF5FCDEEDFAD4E7F8E2E5E9" id="linearGradientF8FBFEEDF5FCDEEDFAD4E7F8E2E5E9_2144751522" x1="0" y1="185.0" x2="0" y2="291.0" gradientUnits="userSpaceOnUse" xlink:type="simple" xlink:actuate="onLoad" xlink:show="other" /></defs></svg>
